<svg xmlns="http://www.w3.org/2000/svg" viewBox="0 0 64 64" role="img" aria-labelledby="title desc">
  <title id="title">Dosto favicon</title>
  <desc id="desc">Monograma editorial para la biblioteca de Dostoievski.</desc>
  <defs>
    <linearGradient id="bg" x1="0%" y1="0%" x2="100%" y2="100%">
      <stop offset="0%" stop-color="#17120b" />
      <stop offset="100%" stop-color="#050607" />
    </linearGradient>
    <linearGradient id="gold" x1="0%" y1="0%" x2="100%" y2="100%">
      <stop offset="0%" stop-color="#f0cd87" />
      <stop offset="100%" stop-color="#b78632" />
    </linearGradient>
  </defs>

  <rect x="3" y="3" width="58" height="58" rx="16" fill="url(#bg)" />
  <rect x="5.5" y="5.5" width="53" height="53" rx="13.5" fill="none" stroke="#3c2d17" stroke-width="1.5" />
  <ellipse cx="32" cy="32" rx="20" ry="24" fill="none" stroke="url(#gold)" stroke-width="2.2" />

  <path
    d="M25 18h11.4c6.4 0 10.3 3.9 10.3 9.4 0 5.8-3.8 9.8-10.2 9.8h-5.6V46H25V18Zm5.9 4.9v9.6h5.2c3.1 0 4.8-1.8 4.8-4.9 0-3.1-1.9-4.7-5-4.7h-5Z"
    fill="url(#gold)"
  />

  <path
    d="M20.5 18.8v26.4"
    fill="none"
    stroke="#7a5a25"
    stroke-width="1.6"
    stroke-linecap="round"
    opacity="0.9"
  />
</svg>
